<svg xmlns="http://www.w3.org/2000/svg" viewBox="0 0 64 64">
  <defs>
    <linearGradient id="bg" x1="8" y1="6" x2="56" y2="58" gradientUnits="userSpaceOnUse">
      <stop offset="0" stop-color="#fff27a"/>
      <stop offset="0.48" stop-color="#f2be22"/>
      <stop offset="1" stop-color="#d89300"/>
    </linearGradient>
    <filter id="shadow" x="-20%" y="-20%" width="140%" height="140%">
      <feDropShadow dx="0" dy="3" stdDeviation="3" flood-color="#9a6400" flood-opacity="0.35"/>
    </filter>
  </defs>
  <rect width="64" height="64" rx="16" fill="url(#bg)"/>
  <path
    d="M39 13c0-1.1.9-2 2-2h4c1.1 0 2 .9 2 2v27.5c0 7.5-6.2 12.5-13 12.5-5.7 0-10-3.2-10-7.4 0-4.3 4.3-7.6 10-7.6 1.8 0 3.5.3 5 .9V22.6l-17 3.3v18.6c0 7.5-6.2 12.5-13 12.5-5.7 0-10-3.2-10-7.4C-1 45.3 3.3 42 9 42c1.8 0 3.5.3 5 .9V20c0-1 .7-1.8 1.6-2l23-4.7c.1 0 .3-.1.4-.1Z"
    fill="#11162c"
    filter="url(#shadow)"
    transform="translate(9 0) scale(0.78)"
  />
</svg>
